<?xml version="1.0" encoding="utf-8"?>
<!-- Generator: Adobe Illustrator 16.0.2, SVG Export Plug-In . SVG Version: 6.00 Build 0)  -->
<!DOCTYPE svg PUBLIC "-//W3C//DTD SVG 1.1//EN" "http://www.w3.org/Graphics/SVG/1.1/DTD/svg11.dtd">
<svg version="1.1" id="Layer_1" xmlns="http://www.w3.org/2000/svg" xmlns:xlink="http://www.w3.org/1999/xlink" x="0px" y="0px"
	 width="18px" height="22px" viewBox="0 0 18 22" enable-background="new 0 0 18 22" xml:space="preserve">
<title>ic_alerta</title>
<desc>Created with Sketch.</desc>
<g id="Page-1">
	<g id="ic_alerta" transform="translate(-5.000000, -3.000000)">
		<rect id="Rectangle-2-Copy-28" fill="none" width="28" height="28"/>
		<g id="Alerta" transform="translate(4.000000, 3.000000)">
			<path id="Stroke-1" fill="#CCCCCC" d="M4.375,9.997c0-3.368,2.539-6.114,5.625-6.114s5.625,2.747,5.625,6.114v4.239
				c0,0.357,0.279,0.647,0.625,0.647s0.625-0.29,0.625-0.647V9.997c0-4.07-3.086-7.408-6.875-7.408S3.125,5.927,3.125,9.997v4.039
				c0,0.357,0.28,0.647,0.625,0.647s0.625-0.29,0.625-0.647V9.997z"/>
			<path id="Stroke-3" fill="#CCCCCC" d="M3.494,16.824c-0.55,0-0.994-0.444-0.994-0.971c0-0.527,0.444-0.971,0.994-0.971h6.482
				h6.53c0.551,0,0.994,0.443,0.994,0.971c0,0.526-0.443,0.971-0.994,0.971H3.494z M18.75,15.854c0-1.253-1.014-2.266-2.244-2.266
				h-6.53H3.494c-1.23,0-2.244,1.013-2.244,2.266c0,1.252,1.013,2.264,2.244,2.264h13.012C17.736,18.117,18.75,17.105,18.75,15.854z
				"/>
			<path id="Stroke-5" fill="#CCCCCC" d="M8.75,2.4c0-0.591,0.551-1.106,1.25-1.106s1.25,0.515,1.25,1.106v0.835
				c0,0.357,0.279,0.647,0.625,0.647S12.5,3.593,12.5,3.235V2.4C12.5,1.063,11.363,0,10,0C8.637,0,7.5,1.063,7.5,2.4v0.835
				c0,0.357,0.28,0.647,0.625,0.647S8.75,3.593,8.75,3.235V2.4z"/>
			<path id="Stroke-7" fill="#CCCCCC" d="M11.25,18.795c0,0.691-0.563,1.264-1.25,1.264c-0.688,0-1.25-0.572-1.25-1.264v-0.678
				c0-0.357-0.28-0.646-0.625-0.646S7.5,17.76,7.5,18.117v0.678c0,1.41,1.125,2.559,2.5,2.559c1.375,0,2.5-1.148,2.5-2.559v-0.678
				c0-0.357-0.279-0.646-0.625-0.646s-0.625,0.289-0.625,0.646V18.795z"/>
		</g>
	</g>
</g>
</svg>
