<!-- Generator: Adobe Illustrator 18.1.1, SVG Export Plug-In  -->
<svg version="1.1"
	 xmlns="http://www.w3.org/2000/svg" xmlns:xlink="http://www.w3.org/1999/xlink" xmlns:a="http://ns.adobe.com/AdobeSVGViewerExtensions/3.0/"
	 x="0px" y="0px" width="815.6px" height="142.9px" viewBox="0 0 815.6 142.9"
	 overflow="scroll" enable-background="new 0 0 815.6 142.9" xml:space="preserve">
<defs>
</defs>
<path fill="#FFFFFF" d="M107.6,65.4c-0.2-5.1-1.7-10.3-4.3-14.9L79.8,9.8c-1.8-3.1-3-6.4-3.7-9.8l-1,1.7c-5.8,10.1-5.8,22.5,0,32.6
	l18.8,32.6c5.8,10.1,5.8,22.5,0,32.6l-1,1.7c-0.7-3.4-1.9-6.7-3.7-9.8L72,61.5l-11-19c-1.8-3.1-3-6.4-3.7-9.8l-1,1.7
	c-5.8,10-5.8,22.4-0.1,32.5l0,0l18.9,32.7c5.8,10.1,5.8,22.5,0,32.6l-1,1.7c-0.7-3.4-1.9-6.7-3.7-9.8L46.9,83.2
	c-3.2-5.5-4.6-11.6-4.3-17.7C17.4,72,0,86,0,102.2c0,22.5,33.6,40.7,75.1,40.7c41.5,0,75.1-18.2,75.1-40.7
	C150.2,86,132.8,72,107.6,65.4z M178.5,135c0.3-5.8,1.1-9.7,2.7-14.2c7.9,3.7,18.1,5.5,25.8,5.5c13.1,0,20.5-4.2,20.5-12.6
	c0-8.2-5.4-12-18.6-17.8l-7.2-3.1c-13.3-5.8-22.3-13.3-22.3-28.2c0-16.1,11.1-26.4,34-26.4c9.2,0,17.8,1.3,25.8,4.1
	c-0.4,5.6-1.4,10-2.8,14.1c-7.6-2.8-16.6-4.1-23.1-4.1c-12.3,0-17.9,4.8-17.9,12.3c0,7.3,5.5,11.6,15.4,15.8l7.6,3.2
	c17.9,7.6,25.4,15.7,25.4,29.3c0,16.2-12.3,27.4-36.2,27.4C195.9,140.3,186.4,138.7,178.5,135z M319.5,67.6v70.5h-14.2l-0.8-8.5
	c-3.9,6.2-10,10.2-19.9,10.2c-18.6,0-31-13.5-31-37.2c0-24.8,13.3-38.9,39.4-38.9C302.9,63.6,311.3,64.7,319.5,67.6z M303.9,122
	V77.7c-3.2-0.6-6.8-0.8-11.1-0.8c-16.1,0-23.6,9.9-23.6,25.7c0,14.4,5.8,24.5,19.6,24.5C294.9,127.1,299.8,125.1,303.9,122z
	 M398.9,90.7v47.4h-15.5V93.4c0-11.1-3.7-16.5-19.2-16.5c-3.7,0-8,0.4-12.3,1.1v60.1h-15.5V67.6c9.9-2.4,20.7-3.9,28.2-3.9
	C390.5,63.6,398.9,73.6,398.9,90.7z M441.9,126.5c4.5,0,8.7-0.8,12.1-2.1c-0.4,4.2-1,9-1.8,13.1c-4.2,1.7-8.7,2.3-13.1,2.3
	c-15.1,0-24.7-6.9-24.7-24.1V41.6c4.8-1.6,10.7-2.3,15.5-2.3V66h24.5c-0.3,4.8-0.7,9.2-1.4,13.3h-23.1v34.6
	C429.9,123,434.4,126.5,441.9,126.5z M525.1,67.6v70.5h-14.2l-0.8-8.5c-3.9,6.2-10,10.2-19.9,10.2c-18.6,0-31-13.5-31-37.2
	c0-24.8,13.3-38.9,39.4-38.9C508.6,63.6,516.9,64.7,525.1,67.6z M509.6,122V77.7c-3.2-0.6-6.8-0.8-11.1-0.8
	c-16.1,0-23.6,9.9-23.6,25.7c0,14.4,5.8,24.5,19.6,24.5C500.6,127.1,505.5,125.1,509.6,122z M604.5,90.7v47.4H589V93.4
	c0-11.1-3.7-16.5-19.2-16.5c-3.7,0-8,0.4-12.3,1.1v60.1H542V67.6c9.9-2.4,20.7-3.9,28.2-3.9C596.2,63.6,604.5,73.6,604.5,90.7z
	 M683.2,39.4v98.7H669l-0.8-9c-3.9,6.6-10,10.7-20.2,10.7c-18.6,0-31-13.5-31-37.2c0-24.8,13.3-38.9,39.4-38.9
	c4.1,0,7.9,0.4,11.6,1.1V41.5C672.7,39.8,678.2,39.4,683.2,39.4z M667.9,121.7V78.3c-4.1-0.8-8.3-1.4-12.4-1.4
	c-15.4,0-22.7,9.6-22.7,25.7c0,14.4,5.8,24.5,19.6,24.5C658.6,127.1,663.6,125,667.9,121.7z M761.2,107.9h-49.5
	c2,12.6,9.3,18.6,23.1,18.6c8.5,0,17.1-1.8,24.8-5.4c-0.6,4.1-1.4,9.5-2.4,14.1c-7.1,3.2-14.5,4.5-22.9,4.5
	c-26,0-38.5-14.4-38.5-38.5c0-21,9.7-37.7,34.4-37.7c22.1,0,31.7,14.5,31.7,32.3C762.1,100.3,761.8,103.8,761.2,107.9z M711.5,94.9
	h35c0-11.6-6.2-18.3-16.9-18.3C718.5,76.6,712.7,82.9,711.5,94.9z M815.6,64.2c0,4.7-0.6,10.3-1.4,13.3c-3.7-0.4-7.3-0.6-11.7-0.6
	c-3.8,0-7.6,0.3-11.4,0.8v60.4h-15.5V67.6c6.6-2.3,17.8-3.9,26.5-3.9C806.8,63.6,812.2,63.8,815.6,64.2z"/>
</svg>
