<?xml version="1.0" encoding="utf-8"?>
<!-- Generator: Adobe Illustrator 18.1.1, SVG Export Plug-In . SVG Version: 6.00 Build 0)  -->
<svg version="1.1" id="Layer_1" xmlns="http://www.w3.org/2000/svg" xmlns:xlink="http://www.w3.org/1999/xlink" x="0px" y="0px"
	 viewBox="0 0 275 60" enable-background="new 0 0 275 60" xml:space="preserve">
<path fill="#FFFFFF" d="M37.5,26.5c-0.1-1.7-0.6-3.3-1.4-4.9L28.3,8.2c-0.6-1-1-2.1-1.3-3.2l-0.3,0.6c-1.9,3.3-1.9,7.4,0,10.7
	l6.3,10.7c1.9,3.3,1.9,7.4,0,10.7l-0.3,0.6c-0.3-1.1-0.7-2.2-1.3-3.2l-5.7-9.9l-3.6-6.3c-0.6-1-1-2.1-1.3-3.2l-0.4,0.6
	c-1.9,3.3-1.9,7.4,0,10.7l0,0l6.3,10.7c1.9,3.3,1.9,7.4,0,10.7l-0.3,0.6c-0.3-1.1-0.7-2.2-1.3-3.2l-7.8-13.5c-1-1.8-1.5-3.9-1.4-5.8
	c-8.3,2.2-14,6.8-14,12.1c0,7.4,11.1,13.5,24.7,13.5s24.7-6,24.7-13.5C51.5,33.3,45.8,28.6,37.5,26.5z M60.8,49.4
	c0.1-1.9,0.4-3.2,0.8-4.7c2.6,1.3,6,1.8,8.5,1.8c4.3,0,6.7-1.4,6.7-4.2c0-2.6-1.8-3.9-6.1-5.8l-2.4-1C64,33.6,61,31.2,61,26.2
	c0-5.3,3.6-8.8,11.3-8.8c3.1,0,5.8,0.4,8.5,1.4c-0.1,1.8-0.4,3.3-1,4.6c-2.5-1-5.4-1.4-7.6-1.4c-4,0-5.8,1.5-5.8,4
	c0,2.4,1.8,3.8,5,5.1l2.5,1.1c5.8,2.5,8.3,5.1,8.3,9.7c0,5.3-4,9-11.9,9C66.5,51.1,63.5,50.6,60.8,49.4z M107.2,27.2v23.2h-4.7
	l-0.3-2.8c-1.3,2.1-3.3,3.3-6.5,3.3c-6.1,0-10.3-4.4-10.3-12.2c0-8.2,4.3-12.8,12.9-12.8C101.8,26,104.6,26.2,107.2,27.2z
	 M102.1,45.1V30.6c-1.1-0.1-2.2-0.3-3.6-0.3c-5.3,0-7.8,3.2-7.8,8.5c0,4.7,1.9,8.1,6.4,8.1C99.2,46.8,100.9,46.1,102.1,45.1z
	 M133.4,34.9v15.6h-5V35.7c0-3.6-1.3-5.4-6.3-5.4c-1.3,0-2.6,0.1-4,0.4v19.7h-5.1V27.2c3.2-0.8,6.8-1.3,9.3-1.3
	C130.7,26,133.4,29.2,133.4,34.9z M147.5,46.7c1.5,0,2.9-0.3,4-0.7c-0.1,1.4-0.3,2.9-0.6,4.3c-1.4,0.6-2.9,0.7-4.3,0.7
	c-5,0-8.2-2.2-8.2-7.9V18.6c1.5-0.6,3.5-0.7,5.1-0.7v8.8h8.1c-0.1,1.5-0.3,3.1-0.4,4.3h-7.6v11.4C143.6,45.4,145.2,46.7,147.5,46.7z
	 M175,27.2v23.2h-4.7l-0.3-2.8c-1.3,2.1-3.3,3.3-6.5,3.3c-6.1,0-10.3-4.4-10.3-12.2c0-8.2,4.3-12.8,12.9-12.8
	C169.6,26,172.3,26.2,175,27.2z M169.9,45.1V30.6c-1.1-0.1-2.2-0.3-3.6-0.3c-5.3,0-7.8,3.2-7.8,8.5c0,4.7,1.9,8.1,6.4,8.1
	C166.8,46.8,168.5,46.1,169.9,45.1z M201.2,34.9v15.6H196V35.7c0-3.6-1.3-5.4-6.3-5.4c-1.3,0-2.6,0.1-4,0.4v19.7h-5.1V27.2
	c3.2-0.8,6.8-1.3,9.3-1.3C198.4,26,201.2,29.2,201.2,34.9z M227,17.9v32.5h-4.7l-0.3-2.9c-1.3,2.2-3.3,3.5-6.7,3.5
	c-6.1,0-10.3-4.4-10.3-12.2c0-8.2,4.3-12.8,12.9-12.8c1.4,0,2.6,0.1,3.8,0.4v-7.6C223.5,18.1,225.3,17.9,227,17.9z M222,45V30.7
	c-1.4-0.3-2.8-0.4-4-0.4c-5,0-7.5,3.2-7.5,8.5c0,4.7,1.9,8.1,6.4,8.1C218.9,46.8,220.6,46.1,222,45z M252.7,40.4h-16.3
	c0.7,4.2,3.1,6.1,7.6,6.1c2.8,0,5.6-0.6,8.2-1.8c-0.1,1.4-0.4,3.1-0.8,4.6c-2.4,1.1-4.7,1.5-7.5,1.5c-8.6,0-12.6-4.7-12.6-12.6
	c0-6.9,3.2-12.4,11.4-12.4c7.2,0,10.4,4.7,10.4,10.7C253,37.9,253,39.2,252.7,40.4z M236.3,36.3h11.5c0-3.8-2.1-6-5.6-6
	C238.7,30.1,236.7,32.2,236.3,36.3z M270.6,26.1c0,1.5-0.1,3.3-0.4,4.3c-1.3-0.1-2.4-0.1-3.9-0.1c-1.3,0-2.5,0.1-3.8,0.3v19.9h-5.1
	V27.2c2.2-0.7,5.8-1.3,8.8-1.3C267.7,26,269.5,26,270.6,26.1z"/>
</svg>
