<?xml version="1.0" encoding="utf-8"?>
<!-- Generator: Adobe Illustrator 18.1.1, SVG Export Plug-In . SVG Version: 6.00 Build 0)  -->
<svg version="1.1" id="Layer_1" xmlns="http://www.w3.org/2000/svg" xmlns:xlink="http://www.w3.org/1999/xlink" x="0px" y="0px"
	 viewBox="0 0 25 25" enable-background="new 0 0 25 25" xml:space="preserve">
<g>
	<g>
		<g>
			<circle fill="#DE2127" cx="12.5" cy="12.5" r="10.9"/>
		</g>
	</g>
</g>
<path fill="#FFFFFF" d="M12.7,6.7c0,1.3,2.2,2.8,2.2,4.3c0,0,0,0.1-0.1,0.3c2.1,0.4,3.6,1.5,3.6,2.7c0,1.6-2.6,2.9-5.9,2.9
	c0,0,0,0-0.1,0c-3.2,0-5.9-1.3-5.9-2.9c0-1.2,1.6-2.2,3.5-2.7c0,0.7,2.2,2.8,2.3,3.6c0,0,0,0.1,0,0.2c0,0,0,0.1,0,0.1
	c0.5-0.2,0.5-1,0.5-1c0-1.8-2.1-2.7-2.1-4.5c0-0.7,0.3-1.2,0.6-1.4v0.5c0,1.3,2.3,2.8,2.3,4v0.4c0.5-0.2,0.5-1.2,0.5-1.2
	c0-1.7-2.2-2.6-2.2-4.5c0-0.7,0.3-1.2,0.6-1.4L12.7,6.7L12.7,6.7z"/>
</svg>
