<?xml version="1.0" encoding="utf-8"?>
<!-- Generator: Adobe Illustrator 18.1.1, SVG Export Plug-In . SVG Version: 6.00 Build 0)  -->
<svg version="1.1" id="Layer_1" xmlns="http://www.w3.org/2000/svg" xmlns:xlink="http://www.w3.org/1999/xlink" x="0px" y="0px"
	 viewBox="0 0 200 50" enable-background="new 0 0 200 50" xml:space="preserve">
<path fill="#EA1D25" d="M29.6,23.4c-0.1-1.2-0.4-2.4-1-3.5L23,10.2c-0.4-0.7-0.7-1.5-0.9-2.3l-0.2,0.4c-1.4,2.4-1.4,5.3,0,7.7
	l4.5,7.7c1.4,2.4,1.4,5.3,0,7.7l-0.2,0.4c-0.2-0.8-0.5-1.6-0.9-2.3l-4.1-7.1l-2.6-4.5c-0.4-0.7-0.7-1.5-0.9-2.3L17.4,16
	c-1.4,2.4-1.4,5.3,0,7.7l0,0l4.5,7.7c1.4,2.4,1.4,5.3,0,7.7l-0.2,0.4c-0.2-0.8-0.5-1.6-0.9-2.3l-5.6-9.7c-0.7-1.3-1.1-2.8-1-4.2
	c-6,1.6-10.1,4.9-10.1,8.7c0,5.3,8,9.7,17.8,9.7c9.8,0,17.8-4.3,17.8-9.7C39.7,28.3,35.6,24.9,29.6,23.4z M46.4,39.9
	c0.1-1.4,0.3-2.3,0.6-3.4c1.9,0.9,4.3,1.3,6.1,1.3c3.1,0,4.8-1,4.8-3c0-1.9-1.3-2.8-4.4-4.2l-1.7-0.7c-3.1-1.4-5.3-3.1-5.3-6.7
	c0-3.8,2.6-6.3,8.1-6.3c2.2,0,4.2,0.3,6.1,1c-0.1,1.3-0.3,2.4-0.7,3.3c-1.8-0.7-3.9-1-5.5-1c-2.9,0-4.2,1.1-4.2,2.9
	c0,1.7,1.3,2.7,3.6,3.7l1.8,0.8c4.2,1.8,6,3.7,6,7c0,3.8-2.9,6.5-8.6,6.5C50.5,41.1,48.3,40.7,46.4,39.9z M79.8,23.9v16.7h-3.4
	l-0.2-2c-0.9,1.5-2.4,2.4-4.7,2.4c-4.4,0-7.4-3.2-7.4-8.8c0-5.9,3.1-9.2,9.3-9.2C75.9,23,77.9,23.2,79.8,23.9z M76.1,36.8V26.3
	c-0.8-0.1-1.6-0.2-2.6-0.2c-3.8,0-5.6,2.3-5.6,6.1c0,3.4,1.4,5.8,4.6,5.8C74,38,75.2,37.5,76.1,36.8z M98.6,29.4v11.2H95V30
	c0-2.6-0.9-3.9-4.5-3.9c-0.9,0-1.9,0.1-2.9,0.3v14.2h-3.7V23.9c2.3-0.6,4.9-0.9,6.7-0.9C96.7,23,98.6,25.3,98.6,29.4z M108.8,37.9
	c1.1,0,2.1-0.2,2.9-0.5c-0.1,1-0.2,2.1-0.4,3.1c-1,0.4-2.1,0.5-3.1,0.5c-3.6,0-5.9-1.6-5.9-5.7V17.7c1.1-0.4,2.5-0.5,3.7-0.5v6.3
	h5.8c-0.1,1.1-0.2,2.2-0.3,3.1H106v8.2C106,37,107.1,37.9,108.8,37.9z M128.6,23.9v16.7h-3.4l-0.2-2c-0.9,1.5-2.4,2.4-4.7,2.4
	c-4.4,0-7.4-3.2-7.4-8.8c0-5.9,3.1-9.2,9.3-9.2C124.7,23,126.6,23.2,128.6,23.9z M124.9,36.8V26.3c-0.8-0.1-1.6-0.2-2.6-0.2
	c-3.8,0-5.6,2.3-5.6,6.1c0,3.4,1.4,5.8,4.6,5.8C122.7,38,123.9,37.5,124.9,36.8z M147.4,29.4v11.2h-3.7V30c0-2.6-0.9-3.9-4.5-3.9
	c-0.9,0-1.9,0.1-2.9,0.3v14.2h-3.7V23.9c2.3-0.6,4.9-0.9,6.7-0.9C145.4,23,147.4,25.3,147.4,29.4z M166,17.2v23.4h-3.4l-0.2-2.1
	c-0.9,1.6-2.4,2.5-4.8,2.5c-4.4,0-7.4-3.2-7.4-8.8c0-5.9,3.1-9.2,9.3-9.2c1,0,1.9,0.1,2.7,0.3v-5.5C163.5,17.3,164.8,17.2,166,17.2z
	 M162.4,36.7V26.4c-1-0.2-2-0.3-2.9-0.3c-3.6,0-5.4,2.3-5.4,6.1c0,3.4,1.4,5.8,4.6,5.8C160.2,38,161.4,37.5,162.4,36.7z M184.5,33.4
	h-11.7c0.5,3,2.2,4.4,5.5,4.4c2,0,4-0.4,5.9-1.3c-0.1,1-0.3,2.2-0.6,3.3c-1.7,0.8-3.4,1.1-5.4,1.1c-6.2,0-9.1-3.4-9.1-9.1
	c0-5,2.3-8.9,8.2-8.9c5.2,0,7.5,3.4,7.5,7.7C184.7,31.6,184.7,32.5,184.5,33.4z M172.7,30.4h8.3c0-2.7-1.5-4.3-4-4.3
	C174.4,26,173,27.5,172.7,30.4z M197.4,23.1c0,1.1-0.1,2.4-0.3,3.1c-0.9-0.1-1.7-0.1-2.8-0.1c-0.9,0-1.8,0.1-2.7,0.2v14.3h-3.7V23.9
	c1.6-0.5,4.2-0.9,6.3-0.9C195.3,23,196.6,23,197.4,23.1z"/>
</svg>
