<?xml version="1.0" encoding="utf-8"?>
<!-- Generator: Adobe Illustrator 18.1.1, SVG Export Plug-In . SVG Version: 6.00 Build 0)  -->
<svg version="1.1" id="Layer_1" xmlns="http://www.w3.org/2000/svg" xmlns:xlink="http://www.w3.org/1999/xlink" x="0px" y="0px"
	 viewBox="0 0 22 22" enable-background="new 0 0 22 22" xml:space="preserve">
<g>
	<path fill="#AAC138" d="M11,0.4C5.1,0.4,0.4,5.1,0.4,11S5.1,21.6,11,21.6S21.6,16.8,21.6,11S16.9,0.4,11,0.4z M11,20.3
		c-5.3,0-9.3-4.2-9.3-9.3S5.9,1.6,11,1.6s9.3,4.2,9.3,9.3S16.1,20.3,11,20.3z"/>
	<g id="Correto" transform="translate(7.000000, 9.333333)">
		<path id="Page-1" fill="#AAC138" stroke="#AAC138" stroke-width="0.5" stroke-miterlimit="10" d="M1.4,5c0.6,0.6,1.4,0.6,1.9,0
			l6.3-6.3c0.2-0.2,0.2-0.4,0-0.4C9.5-2,9.4-2,9.3-1.8L2.9,4.4C2.7,4.6,2.2,4.6,2,4.4l-3.3-3.3c-0.2-0.2-0.4-0.1-0.4,0
			c-0.3,0.2-0.2,0.4,0,0.5L1.4,5z"/>
	</g>
</g>
</svg>
