<!-- Generator: Adobe Illustrator 18.1.1, SVG Export Plug-In  -->
<svg version="1.1"
	 xmlns="http://www.w3.org/2000/svg" xmlns:xlink="http://www.w3.org/1999/xlink" xmlns:a="http://ns.adobe.com/AdobeSVGViewerExtensions/3.0/"
	 x="0px" y="0px" width="32.8px" height="44.7px" viewBox="0 0 32.8 44.7" overflow="scroll" enable-background="new 0 0 32.8 44.7"
	 xml:space="preserve">
<defs>
</defs>
<g>
	<path fill="#23B0B9" d="M28.3,44.7H4.5c-2.5,0-4.5-2-4.5-4.5V4.5C0,2,2,0,4.5,0h13.7c1.2,0,2.3,0.5,3.2,1.3l10.2,10.2
		c0.8,0.8,1.3,2,1.3,3.2v25.6C32.8,42.7,30.8,44.7,28.3,44.7z M4.5,3C3.7,3,3,3.7,3,4.5v35.7c0,0.8,0.7,1.5,1.5,1.5h23.8
		c0.8,0,1.5-0.7,1.5-1.5V14.6c0-0.4-0.2-0.8-0.4-1L19.2,3.4c-0.3-0.3-0.7-0.4-1-0.4H4.5z"/>
</g>
<g>
	<path fill="#23B0B9" d="M30.4,14.9h-8c-2.4,0-4.4-2-4.4-4.4V2.3c0-0.8,0.7-1.5,1.5-1.5s1.5,0.7,1.5,1.5v8.1c0,0.8,0.6,1.4,1.4,1.4
		h8c0.8,0,1.5,0.7,1.5,1.5S31.2,14.9,30.4,14.9z"/>
</g>
<g>
	<polygon fill="#23B0B9" points="10,22.4 15.4,22.4 15.4,24 12,24 12,26.1 15,26.1 15,27.7 12,27.7 12,30.2 15.5,30.2 15.5,31.8 
		10,31.8 	"/>
</g>
<g>
	<path fill="#23B0B9" d="M18.7,28.2l-2.3-3.3h2.1c0,0,1.2,1.8,1.2,1.9l1.1-1.9h1.9l-2.1,3.2l2.4,3.7h-2.1l-1.4-2.2l-1.3,2.2l-1.9,0
		L18.7,28.2z"/>
</g>
</svg>
