<!-- Generator: Adobe Illustrator 18.1.1, SVG Export Plug-In  -->
<svg version="1.1"
	 xmlns="http://www.w3.org/2000/svg" xmlns:xlink="http://www.w3.org/1999/xlink" xmlns:a="http://ns.adobe.com/AdobeSVGViewerExtensions/3.0/"
	 x="0px" y="0px" width="90px" height="90px" viewBox="0 0 90 90" overflow="scroll" enable-background="new 0 0 90 90"
	 xml:space="preserve">
<defs>
</defs>
<g id="Layer_1_copy">
	<path fill="#23B0B9" d="M30.1,45c0-2.7-2.2-5-5-5c-2.7,0-5,2.2-5,5c0,2.7,2.2,5,5,5C27.9,49.9,30.1,47.7,30.1,45"/>
	<path fill="#23B0B9" d="M49.9,45c0-2.7-2.2-5-5-5c-2.7,0-5,2.2-5,5c0,2.7,2.2,5,5,5C47.7,49.9,49.9,47.7,49.9,45"/>
	<path fill="#23B0B9" d="M69.8,45c0-2.7-2.2-5-5-5c-2.7,0-5,2.2-5,5c0,2.7,2.2,5,5,5C67.6,49.9,69.8,47.7,69.8,45"/>
	
		<circle fill="none" stroke="#23B0B9" stroke-width="5" stroke-linecap="round" stroke-linejoin="round" stroke-miterlimit="10" cx="45" cy="45" r="42.5"/>
</g>
</svg>
